<?xml version="1.0" encoding="iso-8859-1"?>
<!-- Generator: Adobe Illustrator 19.0.0, SVG Export Plug-In . SVG Version: 6.00 Build 0)  -->
<svg version="1.1" id="Capa_1" xmlns="http://www.w3.org/2000/svg" xmlns:xlink="http://www.w3.org/1999/xlink" x="0px" y="0px"
	 viewBox="0 0 512 512" style="enable-background:new 0 0 512 512;" xml:space="preserve">
<g>
	<path style="fill:#F0F2F4;" d="M127.377,347.058h288.827c4.834,0,9.227,0,13.921,0c11.413,0,20.75,15.602,20.75,34.67l0,0
		c0,19.068-9.337,34.67-20.75,34.67c-4.694,0-9.087,0-13.921,0H127.377V347.058z"/>
	<rect x="10" y="347.059" style="fill:#FF9750;" width="117.38" height="69.34"/>
	<path style="fill:#FD4A4A;" d="M430.125,347.058c11.413,0,20.75,15.602,20.75,34.67l0,0c0,19.068-9.337,34.67-20.75,34.67
		c-11.412,0-20.749-15.602-20.749-34.67l0,0C409.376,362.66,418.713,347.058,430.125,347.058z"/>
</g>
<path d="M430.125,337.058H10l0,0c-5.522,0-10,4.478-10,10v69.34c0,5.522,4.478,10,10,10l0,0h158.814l0,0c5.522,0,10-4.478,10-10
	s-4.478-10-10-10l0,0h-31.438v-49.34h266.976c-3.153,7.027-4.977,15.48-4.977,24.67c0,9.189,1.823,17.643,4.977,24.67l0,0h-154.26
	l0,0c-5.522,0-10,4.478-10,10s4.478,10,10,10l0,0h180.033l0,0c17.243,0,30.75-19.621,30.75-44.67S447.368,337.058,430.125,337.058z
	 M20,357.058h97.377v49.34H20V357.058z M430.125,406.398c-3.789,0-10.749-9.366-10.749-24.67c0-15.304,6.96-24.67,10.749-24.67
	c3.79,0,10.75,9.366,10.75,24.67S433.915,406.398,430.125,406.398z"/>
<path d="M464.935,156.81L464.935,156.81h-60.24l0,0c-14.925,0-27.067-12.142-27.067-27.066c0-5.522-4.478-10-10-10
	c-5.523,0-10,4.478-10,10c0,11.388,4.067,21.843,10.823,29.992H325.37c-14.925,0-27.067-12.143-27.067-27.068
	s12.143-27.066,27.067-27.066c5.522,0,10-4.478,10-10s-4.478-10-10-10c-25.953,0-47.067,21.114-47.067,47.066
	c0,25.953,21.114,47.068,47.067,47.068h46.109c14.925,0,27.067,12.142,27.067,27.066c0,10.292-5.842,19.607-15.014,24.202
	c-25.672,1.225-46.182,22.49-46.182,48.46c0,17.754,9.737,34.091,25.413,42.634c1.52,0.829,3.159,1.222,4.776,1.222
	c3.542,0,6.975-1.887,8.789-5.217c2.644-4.849,0.854-10.923-3.994-13.566c-9.243-5.038-14.984-14.645-14.984-25.073
	c0-15.717,12.78-28.505,28.494-28.519c0.011,0,0.021,0.002,0.031,0.002c0.66,0,1.326-0.067,1.989-0.203
	c0.68-0.138,1.334-0.346,1.956-0.613c17.45-7.432,28.725-24.435,28.725-43.329c0-11.388-4.067-21.843-10.822-29.992l0,0h57.211l0,0
	c14.925,0,27.066,12.142,27.066,27.066c0,14.926-12.142,27.068-27.066,27.068h-19.945c-26.754,0-48.52,21.766-48.52,48.52v38.521
	c0,5.522,4.477,10,10,10c5.522,0,10-4.478,10-10v-38.521c0-15.726,12.794-28.52,28.52-28.52h19.945
	c25.952,0,47.066-21.115,47.066-47.068C512.001,177.924,490.887,156.81,464.935,156.81z"/>
<path d="M363.224,112.144c5.919,0,10.747-4.828,10.747-10.746c0-5.92-4.828-10.746-10.747-10.746s-10.746,4.826-10.746,10.746
	C352.478,107.316,357.305,112.144,363.224,112.144z"/>
<path d="M198.374,406.398h-0.475c-5.522,0-10,4.478-10,10s4.478,10,10,10h0.475c5.523,0,10-4.478,10-10
	S203.896,406.398,198.374,406.398z"/>
<g>
</g>
<g>
</g>
<g>
</g>
<g>
</g>
<g>
</g>
<g>
</g>
<g>
</g>
<g>
</g>
<g>
</g>
<g>
</g>
<g>
</g>
<g>
</g>
<g>
</g>
<g>
</g>
<g>
</g>
</svg>
