<?xml version="1.0" encoding="iso-8859-1"?>
<!-- Generator: Adobe Illustrator 19.0.0, SVG Export Plug-In . SVG Version: 6.00 Build 0)  -->
<svg version="1.1" id="Capa_1" xmlns="http://www.w3.org/2000/svg" xmlns:xlink="http://www.w3.org/1999/xlink" x="0px" y="0px"
	 viewBox="0 0 511.994 511.994" style="enable-background:new 0 0 511.994 511.994;" xml:space="preserve">
<path style="fill:#006DF0;" d="M245.031,451.161c27.633,5.999,54.9-11.538,60.899-39.171c5.462-25.167-8.611-50.47-32.865-59.107
	V76.806l-34.136,0.111v275.965c-26.66,9.439-40.614,38.702-31.175,65.362C213.651,434.921,227.749,447.363,245.031,451.161z"/>
<path style="fill:#78B9EB;" d="M255.997,503.509c56.555,0.06,102.46-45.734,102.519-102.298
	c0.043-36.671-19.534-70.568-51.315-88.865V59.738c-0.043-28.265-22.94-51.162-51.204-51.204c-28.282,0-51.204,22.922-51.204,51.204
	v252.608c-49.02,28.214-65.883,90.828-37.661,139.847C185.421,483.974,219.318,503.551,255.997,503.509z M238.929,352.883V76.917
	l34.136-0.111v276.076c26.66,9.43,40.631,38.685,31.209,65.345c-9.43,26.66-38.685,40.631-65.345,31.209
	s-40.631-38.685-31.209-65.345C212.875,369.507,224.344,358.037,238.929,352.883z"/>
<g>
	<path style="fill:#231F20;" d="M315.735,307.558v-51.537h25.602c4.711,0,8.534-3.823,8.534-8.534c0-4.711-3.823-8.534-8.534-8.534
		h-25.602v-17.068h25.602c4.711,0,8.534-3.823,8.534-8.534c0-4.711-3.823-8.534-8.534-8.534h-25.602v-17.068h25.602
		c4.711,0,8.534-3.823,8.534-8.534c0-4.711-3.823-8.534-8.534-8.534h-25.602v-17.068h25.602c4.711,0,8.534-3.823,8.534-8.534
		c0-4.711-3.823-8.534-8.534-8.534h-25.602v-17.068h25.602c4.711,0,8.534-3.823,8.534-8.534s-3.823-8.534-8.534-8.534h-25.602
		v-42.67C315.701,26.763,288.973,0.034,255.997,0c-32.976,0.034-59.704,26.763-59.738,59.738v247.82
		c-51.631,32.993-66.736,101.589-33.744,153.22s101.589,66.736,153.22,33.744s66.736-101.589,33.744-153.22
		C340.808,327.741,329.296,316.229,315.735,307.558z M255.997,494.975c-51.844,0.06-93.926-41.911-93.985-93.764
		c-0.043-33.624,17.904-64.705,47.048-81.475c2.637-1.528,4.267-4.344,4.267-7.391V59.738c0.026-23.554,19.116-42.645,42.67-42.67
		c23.545,0.043,42.628,19.125,42.67,42.67v252.608c0,3.047,1.63,5.863,4.267,7.391c44.932,25.858,60.404,83.25,34.537,128.19
		C320.702,477.07,289.621,495.017,255.997,494.975z"/>
	<path style="fill:#231F20;" d="M281.599,347.156V76.806c0-2.27-0.905-4.438-2.509-6.042c-1.511-1.724-3.738-2.646-6.025-2.492
		l-34.136,0.111c-4.711,0-8.534,3.823-8.534,8.534v270.231c-29.818,14.124-42.542,49.745-28.418,79.563
		c7.937,16.752,23.196,28.879,41.313,32.805c4.148,0.87,8.38,1.314,12.622,1.323c32.993,0.009,59.747-26.72,59.764-59.713
		C315.676,378.067,302.414,357.064,281.599,347.156z M282.871,434.204c-10.113,8.176-23.383,11.333-36.099,8.585
		c-23.008-5.103-37.524-27.889-32.421-50.897c3.183-14.346,13.526-26.054,27.377-30.97c3.422-1.186,5.726-4.412,5.735-8.039V85.426
		l17.068-0.085v267.542c0,3.627,2.296,6.861,5.726,8.056c22.189,7.834,33.812,32.173,25.978,54.362
		c-2.62,7.425-7.245,13.97-13.364,18.92L282.871,434.204z"/>
</g>
<g>
</g>
<g>
</g>
<g>
</g>
<g>
</g>
<g>
</g>
<g>
</g>
<g>
</g>
<g>
</g>
<g>
</g>
<g>
</g>
<g>
</g>
<g>
</g>
<g>
</g>
<g>
</g>
<g>
</g>
</svg>
